<?xml version="1.0" encoding="utf-8"?>
<!-- Generator: Adobe Illustrator 24.1.1, SVG Export Plug-In . SVG Version: 6.00 Build 0)  -->
<svg version="1.1" id="Layer_1" xmlns="http://www.w3.org/2000/svg" xmlns:xlink="http://www.w3.org/1999/xlink" x="0px" y="0px"
	 viewBox="0 0 144 144" style="enable-background:new 0 0 144 144;" xml:space="preserve">
<style type="text/css">
	.st0{fill:#FF7F7C;}
	.st1{fill:#4AAEFF;}
	.st2{fill:#97D7FF;}
	.st3{fill:#FFFFFF;}
	.st4{fill:none;stroke:#FFFFFF;stroke-width:8;stroke-miterlimit:10;}
	.st5{fill:#EAEAEA;}
</style>
<g>
	<g>
	</g>
	<g>
	</g>
	<g>
	</g>
</g>
<g>
	<path class="st0" d="M72,72l30.5-64c35.3,16.8,50.3,59.2,33.5,94.5S76.9,152.8,41.5,136c-14.1-6.7-24.3-16.4-31.8-30.2L72,72z"/>
	<path class="st1" d="M72,72L1.7,62.8C6.8,23.9,42.4-3.4,81.3,1.7c7.8,1,14.2,2.9,21.3,6.3L72,72z"/>
	<path class="st2" d="M72,72L9.7,105.8c-7.5-13.8-10-27.6-8-43.1L72,72z"/>
	<circle class="st3" cx="71.9" cy="71.7" r="44.8"/>
	<line class="st4" x1="91.4" y1="31.4" x2="102.5" y2="8"/>
	<line class="st4" x1="27.4" y1="66.2" x2="1.7" y2="62.8"/>
	<line class="st4" x1="32.7" y1="93.4" x2="9.7" y2="105.8"/>
	<circle class="st5" cx="72.2" cy="71.7" r="36.2"/>
</g>
</svg>
