<?xml version="1.0" encoding="utf-8"?>
<!-- Generator: Adobe Illustrator 27.6.1, SVG Export Plug-In . SVG Version: 6.00 Build 0)  -->
<svg version="1.1" id="Layer_1" xmlns="http://www.w3.org/2000/svg" xmlns:xlink="http://www.w3.org/1999/xlink" x="0px" y="0px"
	 viewBox="0 0 144 144" style="enable-background:new 0 0 144 144;" xml:space="preserve">
<style type="text/css">
	.st0{fill:#FF7F7C;}
	.st1{fill:#4AAEFF;}
</style>
<g>
	<circle class="st0" cx="72.2" cy="71.7" r="16.1"/>
	<path class="st1" d="M134,51.5L101.7,24c-4.8-4.1-10.9-6.3-17.2-6.3H72.2h-0.1H59.9c-6.3,0-12.4,2.2-17.2,6.3L10.4,51.5
		C4.5,56.5,1,63.9,1,71.7c0,7.8,3.4,15.2,9.4,20.2l32.3,27.5c4.8,4.1,10.9,6.3,17.2,6.3h12.3h0.1h12.3c6.3,0,12.4-2.2,17.2-6.3
		L134,91.9c5.9-5,9.4-12.4,9.4-20.2v0C143.4,63.9,139.9,56.5,134,51.5z M119.5,71.9L95.1,92.7c-6.4,5.4-14.5,8.4-22.9,8.4
		c-8.4,0-16.5-3-22.9-8.4L24.9,71.9v-0.5l24.5-20.8c6.4-5.4,14.5-8.4,22.9-8.4c8.4,0,16.5,3,22.9,8.4l24.5,20.8V71.9z"/>
</g>
</svg>
